<svg width="25" height="25" viewBox="0 0 25 25" fill="none" xmlns="http://www.w3.org/2000/svg">
<path d="M11.3544 19.4562L21.4967 16.7386M0.900146 3.62244L1.86607 3.36362C2.933 3.07773 4.02968 3.7109 4.31556 4.77783L7.68021 17.3349M15.3383 11.1418L14.303 7.27809M14.303 7.27809L13.2423 9.11521M14.303 7.27809L16.1401 8.33875M19.4862 5.37162L20.7803 10.2013C21.2091 11.8016 20.2593 13.4467 18.6589 13.8755L13.8293 15.1696C12.2289 15.5984 10.5839 14.6487 10.1551 13.0483L8.86099 8.21863C8.43216 6.61823 9.38191 4.97322 10.9823 4.5444L15.8119 3.2503C17.4123 2.82148 19.0573 3.77122 19.4862 5.37162Z" stroke="white" stroke-width="1.8" stroke-linecap="round" stroke-linejoin="round"/>
<circle cx="8.45671" cy="20.2326" r="3" transform="rotate(-15 8.45671 20.2326)" stroke="white" stroke-width="1.8"/>
</svg>
